<svg width="259" height="55" viewBox="0 0 259 55" fill="none" xmlns="http://www.w3.org/2000/svg">
<path d="M150.041 0H141.578V54.0551H150.041V0Z" fill="url(#paint0_linear_5468_8091)"/>
<path d="M111.246 46.7335V0H102.785V46.7335V54.0551H111.246H132.26V46.7335H111.246Z" fill="url(#paint1_linear_5468_8091)"/>
<path d="M41.3623 53.5707L17.1632 25.6246L40.8779 0H30.024L8.46296 23.4596V0H0V54.0551H8.46296V28.3498L30.4276 53.5707H41.3623Z" fill="url(#paint2_linear_5468_8091)"/>
<path d="M95.8896 53.7934L74.8274 0.380859H66.7407L45.375 53.7934H54.8357L71.1029 12.2164L86.4289 53.7934H95.8896Z" fill="url(#paint3_linear_5468_8091)"/>
<path d="M258.392 53.7934L237.331 0.380859H229.245L207.879 53.7934H217.34L233.607 12.2164L248.931 53.7934H258.392Z" fill="url(#paint4_linear_5468_8091)"/>
<path d="M201.32 0.380859L184.014 42.0886L166.98 0.380859H157.52L179.873 53.7934H188.769L210.78 0.380859H201.32Z" fill="url(#paint5_linear_5468_8091)"/>
<defs>
<linearGradient id="paint0_linear_5468_8091" x1="145.81" y1="54.0551" x2="145.81" y2="0" gradientUnits="userSpaceOnUse">
<stop stop-color="#333333"/>
<stop offset="1"/>
</linearGradient>
<linearGradient id="paint1_linear_5468_8091" x1="117.522" y1="54.0551" x2="117.522" y2="0" gradientUnits="userSpaceOnUse">
<stop stop-color="#333333"/>
<stop offset="1"/>
</linearGradient>
<linearGradient id="paint2_linear_5468_8091" x1="20.6811" y1="54.0551" x2="20.6811" y2="0" gradientUnits="userSpaceOnUse">
<stop stop-color="#333333"/>
<stop offset="1"/>
</linearGradient>
<linearGradient id="paint3_linear_5468_8091" x1="70.6315" y1="53.7934" x2="70.6315" y2="0.380859" gradientUnits="userSpaceOnUse">
<stop stop-color="#333333"/>
<stop offset="1"/>
</linearGradient>
<linearGradient id="paint4_linear_5468_8091" x1="233.135" y1="53.7934" x2="233.135" y2="0.380859" gradientUnits="userSpaceOnUse">
<stop stop-color="#333333"/>
<stop offset="1"/>
</linearGradient>
<linearGradient id="paint5_linear_5468_8091" x1="184.15" y1="53.7934" x2="184.15" y2="0.380859" gradientUnits="userSpaceOnUse">
<stop stop-color="#333333"/>
<stop offset="1"/>
</linearGradient>
</defs>
</svg>
