<svg width="260" height="74" viewBox="0 0 260 74" fill="none" xmlns="http://www.w3.org/2000/svg">
<g clip-path="url(#clip0_5468_7917)">
<path d="M150.182 0H141.719V54.0551H150.182V0Z" fill="url(#paint0_linear_5468_7917)"/>
<path d="M111.387 46.7335V0H102.926V46.7335V54.0551H111.387H132.401V46.7335H111.387Z" fill="url(#paint1_linear_5468_7917)"/>
<path d="M41.5029 53.5707L17.3039 25.6246L41.0185 0H30.1646L8.60358 23.4596V0H0.140625V54.0551H8.60358V28.3498L30.5682 53.5707H41.5029Z" fill="url(#paint2_linear_5468_7917)"/>
<path d="M96.0302 53.7934L74.9681 0.380859H66.8813L45.5156 53.7934H54.9763L71.2435 12.2164L86.5695 53.7934H96.0302Z" fill="url(#paint3_linear_5468_7917)"/>
<path d="M258.532 53.7934L237.472 0.380859H229.385L208.02 53.7934H217.48L233.747 12.2164L249.072 53.7934H258.532Z" fill="url(#paint4_linear_5468_7917)"/>
<path d="M201.46 0.380859L184.155 42.0886L167.121 0.380859H157.66L180.014 53.7934H188.909L210.921 0.380859H201.46Z" fill="url(#paint5_linear_5468_7917)"/>
<path d="M0 72.6898V66.3789H1.07038V71.7631H4.04743V72.6898H0Z" fill="#333333"/>
<path d="M7.3013 69.3359H6.71364L6.60547 67.6246V66.375H7.40139V67.6246L7.3013 69.3359Z" fill="#333333"/>
<path d="M11.4883 66.3789V72.6898H10.418V66.3789H11.4883Z" fill="#333333"/>
<path d="M15.9686 72.6898H14.9062V66.3789H16.3948L18.4354 71.345L20.4939 66.3789H21.9824V72.6898H20.9249V67.706L18.8568 72.6898H18.0334L15.9653 67.7141V72.6898H15.9686Z" fill="#333333"/>
<path d="M26.4529 72.6898H25.3906V66.3789H26.8791L28.9198 71.345L30.9782 66.3789H32.4668V72.6898H31.4093V67.706L29.3412 72.6898H28.5178L26.4497 67.7141V72.6898H26.4529Z" fill="#333333"/>
<path d="M39.0033 72.9127C38.498 72.9127 38.0346 72.8304 37.6133 72.6641C37.1919 72.4994 36.8286 72.267 36.5251 71.9699C36.2216 71.6728 35.9875 71.3177 35.8228 70.9027C35.6582 70.4894 35.5742 70.0326 35.5742 69.5337C35.5742 69.0348 35.6566 68.586 35.8228 68.1695C35.9875 67.7529 36.2232 67.3961 36.5251 67.1007C36.8286 66.8053 37.1903 66.5728 37.6133 66.4065C38.0363 66.2402 38.4996 66.1562 39.0033 66.1562C39.507 66.1562 39.9801 66.2402 40.403 66.4065C40.826 66.5728 41.1877 66.8053 41.4912 67.1007C41.7947 67.3961 42.0288 67.7529 42.1967 68.1695C42.363 68.586 42.4469 69.0413 42.4469 69.5337C42.4469 70.0261 42.363 70.4894 42.1967 70.9027C42.0304 71.316 41.7947 71.6712 41.4912 71.9699C41.1877 72.267 40.826 72.4994 40.403 72.6641C39.9801 72.8288 39.5151 72.9127 39.0033 72.9127ZM39.0033 67.0926C38.6578 67.0926 38.3414 67.154 38.054 67.2751C37.7666 67.3962 37.5164 67.5641 37.3049 67.7772C37.0934 67.9903 36.9287 68.247 36.8125 68.5473C36.6963 68.8475 36.6381 69.1769 36.6381 69.5337C36.6381 69.8905 36.6963 70.2198 36.8125 70.5201C36.9287 70.8204 37.0918 71.0787 37.3049 71.2951C37.5164 71.5114 37.7666 71.6809 38.054 71.802C38.3414 71.9231 38.6578 71.9844 39.0033 71.9844C39.3488 71.9844 39.6749 71.9231 39.9623 71.802C40.2513 71.6809 40.4999 71.5114 40.7114 71.2951C40.9213 71.0787 41.0843 70.8204 41.2006 70.5201C41.3168 70.2198 41.3749 69.8905 41.3749 69.5337C41.3749 69.1769 41.3168 68.8475 41.2006 68.5473C41.0843 68.247 40.9213 67.9903 40.7114 67.7772C40.5015 67.5641 40.2513 67.3962 39.9623 67.2751C39.6733 67.154 39.3536 67.0926 39.0033 67.0926Z" fill="#333333"/>
<path d="M45.543 72.6898V66.3789H48.3989C48.7008 66.3789 48.9785 66.4209 49.2352 66.5032C49.4903 66.5856 49.7099 66.7034 49.8939 66.8552C50.078 67.0069 50.2233 67.1877 50.3266 67.3944C50.4315 67.6027 50.4832 67.8271 50.4832 68.0709C50.4832 68.3808 50.396 68.6569 50.22 68.8975C50.0441 69.138 49.8196 69.2962 49.5468 69.3721C49.7066 69.4125 49.8536 69.4803 49.9908 69.5723C50.1264 69.6659 50.2442 69.7789 50.3427 69.9113C50.4412 70.0453 50.5187 70.1955 50.5752 70.3618C50.6317 70.528 50.6608 70.704 50.6608 70.8865C50.6608 71.148 50.6059 71.3885 50.4961 71.6097C50.3863 71.8309 50.233 72.0214 50.0376 72.1829C49.8423 72.3443 49.6065 72.4686 49.3353 72.5574C49.0625 72.6462 48.7622 72.6898 48.4345 72.6898H45.5446H45.543ZM46.615 67.262V68.9636H48.2391C48.5846 68.9636 48.8655 68.8845 49.0818 68.7263C49.2982 68.5681 49.4064 68.3647 49.4064 68.1144C49.4064 67.8642 49.2982 67.6608 49.0818 67.501C48.8655 67.3411 48.5846 67.262 48.2391 67.262H46.615ZM49.5823 70.8009C49.5823 70.6588 49.55 70.5264 49.4838 70.4053C49.4177 70.2843 49.3256 70.1777 49.2078 70.0873C49.0883 69.9969 48.9495 69.9275 48.7896 69.8758C48.6298 69.8241 48.4522 69.7999 48.2536 69.7999H46.6134V71.8067H48.2536C48.4506 71.8067 48.6298 71.7809 48.7896 71.7308C48.9495 71.6808 49.0883 71.6097 49.2078 71.5226C49.3272 71.4338 49.4193 71.3272 49.4838 71.2029C49.5484 71.0786 49.5823 70.9446 49.5823 70.8025V70.8009Z" fill="#333333"/>
<path d="M54.9219 66.3789V72.6898H53.8516V66.3789H54.9219Z" fill="#333333"/>
<path d="M58.3359 72.6898V66.3789H59.4063V71.7631H62.3834V72.6898H58.3359Z" fill="#333333"/>
<path d="M66.3985 66.3789V72.6898H65.3281V66.3789H66.3985Z" fill="#333333"/>
<path d="M70.8451 71.7809H74.2661V72.6898H69.8086V66.3789H74.1789V67.2878H70.8451V69.025H73.8221V69.8484H70.8451V71.7809Z" fill="#333333"/>
<path d="M78.4337 72.6898H77.3633V66.3789H80.2709C80.6164 66.3789 80.9344 66.429 81.2267 66.5307C81.5189 66.6324 81.7675 66.7744 81.9758 66.9553C82.184 67.1361 82.3471 67.3524 82.465 67.601C82.5844 67.8513 82.6442 68.1257 82.6442 68.4276C82.6442 68.6424 82.607 68.8458 82.5328 69.0395C82.4585 69.2333 82.3584 69.4092 82.2309 69.5691C82.1033 69.7289 81.9483 69.8677 81.7675 69.9872C81.5867 70.1067 81.3881 70.1939 81.1734 70.2487L82.7491 72.6898H81.5221L80.1288 70.4086H78.4353V72.6898H78.4337ZM78.4337 67.262V69.5513H80.145C80.3532 69.5513 80.5454 69.5239 80.7181 69.4657C80.8909 69.4076 81.041 69.3317 81.1685 69.2349C81.2961 69.138 81.3962 69.0185 81.4672 68.8781C81.5383 68.7376 81.5738 68.5875 81.5738 68.4276C81.5738 68.0531 81.4398 67.7657 81.1734 67.5639C80.907 67.3621 80.5647 67.262 80.1466 67.262H78.4353H78.4337Z" fill="#333333"/>
<path d="M86.017 72.8166C85.8523 72.8166 85.7183 72.7617 85.6166 72.6519C85.5149 72.5422 85.4648 72.4017 85.4648 72.229C85.4648 72.0562 85.5197 71.9141 85.6295 71.806C85.7393 71.6978 85.8814 71.6445 86.0557 71.6445C86.2446 71.6445 86.398 71.7172 86.5175 71.8641C86.6369 72.011 86.6951 72.208 86.6951 72.4582C86.6951 72.765 86.6256 73.062 86.4868 73.3478C86.348 73.6335 86.1704 73.8499 85.9556 73.9984L85.4729 73.7417C85.636 73.6222 85.7667 73.4769 85.8668 73.3042C85.9669 73.1314 86.017 72.9684 86.017 72.815V72.8166Z" fill="#333333"/>
<path d="M97.4822 66.3125L99.7666 72.7235H98.6139L96.6943 67.2521L94.7748 72.7235H93.6172L95.9065 66.3125H97.4822Z" fill="#333333"/>
<path d="M103.603 70.7654V72.6898H102.566V66.3789H105.012C105.377 66.3789 105.718 66.4338 106.031 66.5436C106.344 66.6534 106.614 66.8051 106.838 66.9989C107.063 67.1926 107.239 67.4218 107.363 67.6882C107.487 67.9546 107.55 68.2501 107.55 68.5713C107.55 68.8926 107.487 69.1848 107.363 69.4528C107.239 69.7208 107.063 69.9517 106.838 70.1454C106.614 70.3392 106.344 70.4893 106.031 70.6007C105.718 70.7105 105.374 70.7654 104.999 70.7654H103.603ZM103.603 67.262V69.8742H104.835C105.078 69.8742 105.301 69.8419 105.503 69.7757C105.705 69.7111 105.878 69.6191 106.023 69.5029C106.168 69.3866 106.28 69.2494 106.36 69.0912C106.439 68.933 106.48 68.7602 106.48 68.5713C106.48 68.3824 106.439 68.2049 106.36 68.045C106.281 67.8852 106.167 67.748 106.018 67.6317C105.87 67.5155 105.697 67.4251 105.498 67.3605C105.3 67.2943 105.078 67.262 104.835 67.262H103.603Z" fill="#333333"/>
<path d="M111.603 70.7654V72.6898H110.566V66.3789H113.012C113.377 66.3789 113.718 66.4338 114.031 66.5436C114.344 66.6534 114.614 66.8051 114.838 66.9989C115.063 67.1926 115.239 67.4218 115.363 67.6882C115.487 67.9546 115.55 68.2501 115.55 68.5713C115.55 68.8926 115.487 69.1848 115.363 69.4528C115.239 69.7208 115.063 69.9517 114.838 70.1454C114.614 70.3392 114.344 70.4893 114.031 70.6007C113.718 70.7105 113.374 70.7654 112.999 70.7654H111.603ZM111.603 67.262V69.8742H112.835C113.078 69.8742 113.301 69.8419 113.503 69.7757C113.705 69.7111 113.878 69.6191 114.023 69.5029C114.168 69.3866 114.28 69.2494 114.36 69.0912C114.439 68.933 114.48 68.7602 114.48 68.5713C114.48 68.3824 114.439 68.2049 114.36 68.045C114.281 67.8852 114.167 67.748 114.018 67.6317C113.87 67.5155 113.697 67.4251 113.498 67.3605C113.3 67.2943 113.078 67.262 112.835 67.262H111.603Z" fill="#333333"/>
<path d="M119.625 72.6898H118.555V66.3789H121.462C121.808 66.3789 122.126 66.429 122.418 66.5307C122.71 66.6324 122.959 66.7744 123.167 66.9553C123.375 67.1361 123.539 67.3524 123.656 67.601C123.776 67.8513 123.836 68.1257 123.836 68.4276C123.836 68.6424 123.798 68.8458 123.724 69.0395C123.65 69.2333 123.55 69.4092 123.422 69.5691C123.295 69.7289 123.14 69.8677 122.959 69.9872C122.778 70.1067 122.58 70.1939 122.365 70.2487L123.94 72.6898H122.714L121.32 70.4086H119.627V72.6898H119.625ZM119.625 67.262V69.5513H121.336C121.545 69.5513 121.737 69.5239 121.91 69.4657C122.082 69.4076 122.232 69.3317 122.36 69.2349C122.487 69.138 122.588 69.0185 122.659 68.8781C122.73 68.7376 122.765 68.5875 122.765 68.4276C122.765 68.0531 122.631 67.7657 122.365 67.5639C122.098 67.3621 121.756 67.262 121.338 67.262H119.627H119.625Z" fill="#333333"/>
<path d="M130.163 72.9127C129.658 72.9127 129.195 72.8304 128.773 72.6641C128.352 72.4994 127.989 72.267 127.685 71.9699C127.382 71.6728 127.148 71.3177 126.983 70.9027C126.818 70.4894 126.734 70.0326 126.734 69.5337C126.734 69.0348 126.817 68.586 126.983 68.1695C127.148 67.7529 127.383 67.3961 127.685 67.1007C127.989 66.8053 128.35 66.5728 128.773 66.4065C129.196 66.2402 129.66 66.1562 130.163 66.1562C130.667 66.1562 131.14 66.2402 131.563 66.4065C131.986 66.5728 132.348 66.8053 132.651 67.1007C132.955 67.3961 133.189 67.7529 133.357 68.1695C133.525 68.586 133.607 69.0413 133.607 69.5337C133.607 70.0261 133.523 70.4894 133.357 70.9027C133.191 71.316 132.955 71.6712 132.651 71.9699C132.348 72.267 131.986 72.4994 131.563 72.6641C131.14 72.8288 130.675 72.9127 130.163 72.9127ZM130.163 67.0926C129.818 67.0926 129.502 67.154 129.214 67.2751C128.927 67.3962 128.677 67.5641 128.465 67.7772C128.254 67.9903 128.089 68.247 127.973 68.5473C127.856 68.8475 127.798 69.1769 127.798 69.5337C127.798 69.8905 127.856 70.2198 127.973 70.5201C128.089 70.8204 128.252 71.0787 128.465 71.2951C128.677 71.5114 128.927 71.6809 129.214 71.802C129.502 71.9231 129.818 71.9844 130.163 71.9844C130.509 71.9844 130.835 71.9231 131.122 71.802C131.411 71.6809 131.66 71.5114 131.872 71.2951C132.083 71.0787 132.244 70.8204 132.361 70.5201C132.477 70.2198 132.535 69.8905 132.535 69.5337C132.535 69.1769 132.477 68.8475 132.361 68.5473C132.244 68.247 132.081 67.9903 131.872 67.7772C131.662 67.5641 131.411 67.3962 131.122 67.2751C130.833 67.154 130.514 67.0926 130.163 67.0926Z" fill="#333333"/>
<path d="M139.716 71.9818C139.945 71.9818 140.166 71.9447 140.381 71.8704C140.596 71.7961 140.793 71.6944 140.97 71.5636C141.148 71.4329 141.303 71.2763 141.434 71.0922C141.564 70.9082 141.658 70.708 141.716 70.4933L142.735 70.6628C142.662 70.9905 142.533 71.2908 142.346 71.5636C142.159 71.8365 141.931 72.0722 141.665 72.2708C141.398 72.4694 141.096 72.626 140.759 72.739C140.421 72.852 140.069 72.9085 139.701 72.9085C139.222 72.9085 138.781 72.8229 138.376 72.6534C137.971 72.4839 137.624 72.2514 137.331 71.9543C137.039 71.6589 136.813 71.3021 136.65 70.8856C136.487 70.469 136.406 70.017 136.406 69.5294C136.406 69.0419 136.487 68.5834 136.65 68.1685C136.813 67.7535 137.041 67.4 137.336 67.1045C137.632 66.8091 137.979 66.575 138.381 66.4055C138.783 66.236 139.223 66.1504 139.701 66.1504C140.069 66.1504 140.423 66.2085 140.759 66.3247C141.095 66.441 141.397 66.604 141.665 66.8139C141.931 67.0238 142.159 67.2724 142.346 67.5582C142.533 67.844 142.662 68.1555 142.735 68.4913L141.708 68.6173C141.656 68.3912 141.568 68.1846 141.443 67.9973C141.319 67.81 141.167 67.6502 140.988 67.5162C140.809 67.3822 140.612 67.2773 140.394 67.1998C140.176 67.1223 139.95 67.0852 139.714 67.0852C139.387 67.0852 139.085 67.1465 138.812 67.2676C138.537 67.3887 138.302 67.5566 138.103 67.7697C137.904 67.9828 137.749 68.2395 137.64 68.5398C137.53 68.8401 137.475 69.1694 137.475 69.5262C137.475 69.883 137.532 70.2123 137.645 70.5126C137.758 70.8129 137.913 71.0712 138.108 71.2876C138.303 71.5039 138.539 71.6734 138.813 71.7945C139.088 71.9156 139.388 71.9769 139.716 71.9769V71.9818Z" fill="#333333"/>
<path d="M145.828 72.6898V66.3789H146.908V68.9556H150.003V66.3789H151.083V72.6898H150.003V69.8645H146.908V72.6898H145.828Z" fill="#333333"/>
<path d="M155.505 71.7809H158.926V72.6898H154.469V66.3789H158.839V67.2878H155.505V69.025H158.482V69.8484H155.505V71.7809Z" fill="#333333"/>
<path d="M166.562 66.3789H168.713C169.259 66.3789 169.756 66.4548 170.206 66.6049C170.657 66.7551 171.041 66.9698 171.362 67.2475C171.684 67.5252 171.931 67.8561 172.107 68.242C172.283 68.6278 172.37 69.0589 172.37 69.5352C172.37 70.0114 172.283 70.4425 172.107 70.8283C171.931 71.2142 171.684 71.5452 171.362 71.8228C171.041 72.1005 170.657 72.3136 170.206 72.4654C169.756 72.6171 169.259 72.6914 168.713 72.6914H166.562V66.3805V66.3789ZM171.298 69.5352C171.298 69.1848 171.235 68.87 171.11 68.5907C170.986 68.3114 170.81 68.0741 170.584 67.8771C170.358 67.6802 170.085 67.53 169.769 67.4267C169.452 67.3234 169.099 67.2717 168.713 67.2717H167.625V71.7986H168.713C169.099 71.7986 169.451 71.7453 169.769 71.6372C170.087 71.529 170.358 71.3789 170.584 71.1819C170.81 70.9866 170.986 70.7492 171.11 70.4699C171.235 70.1906 171.298 69.879 171.298 69.5335V69.5352Z" fill="#333333"/>
<path d="M176.527 66.3789V72.6898H175.457V66.3789H176.527Z" fill="#333333"/>
<path d="M181.016 70.2568V72.6898H179.945V66.3789H184.077V67.3153H181.017V69.3995H183.55V70.2568H181.017H181.016Z" fill="#333333"/>
<path d="M188.07 70.2568V72.6898H187V66.3789H191.131V67.3153H188.072V69.3995H190.605V70.2568H188.072H188.07Z" fill="#333333"/>
<path d="M195.099 71.7809H198.52V72.6898H194.062V66.3789H198.433V67.2878H195.099V69.025H198.076V69.8484H195.099V71.7809Z" fill="#333333"/>
<path d="M202.68 72.6898H201.609V66.3789H204.517C204.862 66.3789 205.181 66.429 205.473 66.5307C205.765 66.6324 206.014 66.7744 206.222 66.9553C206.43 67.1361 206.593 67.3524 206.711 67.601C206.831 67.8513 206.89 68.1257 206.89 68.4276C206.89 68.6424 206.853 68.8458 206.779 69.0395C206.705 69.2333 206.604 69.4092 206.477 69.5691C206.349 69.7289 206.194 69.8677 206.014 69.9872C205.833 70.1067 205.634 70.1939 205.419 70.2487L206.995 72.6898H205.768L204.375 70.4086H202.681V72.6898H202.68ZM202.68 67.262V69.5513H204.391C204.599 69.5513 204.791 69.5239 204.964 69.4657C205.137 69.4092 205.287 69.3317 205.415 69.2349C205.542 69.138 205.642 69.0185 205.713 68.8781C205.784 68.7376 205.82 68.5875 205.82 68.4276C205.82 68.0531 205.686 67.7657 205.419 67.5639C205.153 67.3621 204.811 67.262 204.393 67.262H202.681H202.68Z" fill="#333333"/>
<path d="M211.122 71.7809H214.543V72.6898H210.086V66.3789H214.456V67.2878H211.122V69.025H214.099V69.8484H211.122V71.7809Z" fill="#333333"/>
<path d="M218.703 72.6898H217.641V66.3789H219.129L221.17 71.345L223.228 66.3789H224.717V72.6898H223.659V67.706L221.591 72.6898H220.768L218.7 67.7141V72.6898H218.703Z" fill="#333333"/>
<path d="M229.183 72.6898H228.121V66.3789H229.61L231.65 71.345L233.709 66.3789H235.197V72.6898H234.14V67.706L232.072 72.6898H231.248L229.18 67.7141V72.6898H229.183Z" fill="#333333"/>
<path d="M239.642 71.7809H243.063V72.6898H238.605V66.3789H242.976V67.2878H239.642V69.025H242.619V69.8484H239.642V71.7809Z" fill="#333333"/>
<path d="M250.369 71.3886V66.3789H251.414V72.6898H250.113L247.205 67.6802V72.6898H246.152V66.3789H247.454L250.369 71.3886Z" fill="#333333"/>
<path d="M256.204 67.2975H254.18V66.3789H259.285V67.2975H257.273V72.6898H256.203V67.2975H256.204Z" fill="#333333"/>
<path d="M158.323 63.8359L156.912 65.791H156.371L157.191 63.8359H158.323Z" fill="#333333"/>
<path d="M197.76 63.8359L196.349 65.791H195.809L196.629 63.8359H197.76Z" fill="#333333"/>
</g>
<defs>
<linearGradient id="paint0_linear_5468_7917" x1="145.95" y1="54.0551" x2="145.95" y2="0" gradientUnits="userSpaceOnUse">
<stop stop-color="#333333"/>
<stop offset="1"/>
</linearGradient>
<linearGradient id="paint1_linear_5468_7917" x1="117.662" y1="54.0551" x2="117.662" y2="0" gradientUnits="userSpaceOnUse">
<stop stop-color="#333333"/>
<stop offset="1"/>
</linearGradient>
<linearGradient id="paint2_linear_5468_7917" x1="20.8218" y1="54.0551" x2="20.8218" y2="0" gradientUnits="userSpaceOnUse">
<stop stop-color="#333333"/>
<stop offset="1"/>
</linearGradient>
<linearGradient id="paint3_linear_5468_7917" x1="70.7721" y1="53.7934" x2="70.7721" y2="0.380859" gradientUnits="userSpaceOnUse">
<stop stop-color="#333333"/>
<stop offset="1"/>
</linearGradient>
<linearGradient id="paint4_linear_5468_7917" x1="233.276" y1="53.7934" x2="233.276" y2="0.380859" gradientUnits="userSpaceOnUse">
<stop stop-color="#333333"/>
<stop offset="1"/>
</linearGradient>
<linearGradient id="paint5_linear_5468_7917" x1="184.291" y1="53.7934" x2="184.291" y2="0.380859" gradientUnits="userSpaceOnUse">
<stop stop-color="#333333"/>
<stop offset="1"/>
</linearGradient>
<clipPath id="clip0_5468_7917">
<rect width="259.284" height="74" fill="white"/>
</clipPath>
</defs>
</svg>
